<svg xmlns="http://www.w3.org/2000/svg" id="Layer_1" viewBox="0 0 512 512"><path d="m396.59 402.37c3.66-5.25 7.58-10.54 11.68-16.06 18.53-24.96 37.69-50.77 37.62-80.63-.12-47.74-39-86.49-86.71-86.49-.07 0-.15 0-.22 0-17.74.04-34.65 5.4-48.94 15.27-17.13-12.32-36.22-20.92-56.44-25.52 27.25-13.2 46.08-41.13 46.08-73.38v-15.28-56.07l22.79-6.02v45.7l-10.27 7.5c-1.55 1.13-2.46 2.93-2.46 4.85v37.85c0 2.26 1.27 4.33 3.28 5.35 2.02 1.02 4.43.83 6.26-.5l9.2-6.72 9.2 6.72c1.05.76 2.29 1.15 3.54 1.15.93 0 1.86-.21 2.72-.65 2.01-1.02 3.28-3.09 3.28-5.35v-37.85c0-1.92-.92-3.72-2.46-4.85l-10.27-7.5v-53.5c0-2.72-1.83-5.11-4.47-5.8l-111.23-29.39c-1.01-.27-2.06-.27-3.07 0l-111.21 29.39c-2.63.7-4.47 3.08-4.47 5.8s1.83 5.11 4.47 5.8l30.32 8.01v56.08.01 15.27c0 32.62 19.28 60.81 47.03 73.82-62.36 14.98-111.03 67.32-119.16 133.32-.21 1.71.32 3.42 1.46 4.71s2.78 2.03 4.49 2.03h216.55c7.08 12.83 16.26 25.08 25.31 37.13 4.13 5.5 8.08 10.77 11.76 16-32.26 7.9-52.6 25.14-52.55 45.25.04 13.95 9.94 26.72 27.88 35.96 16.59 8.54 38.46 13.24 61.64 13.23h.43c50.37-.12 89.77-21.93 89.71-49.64-.05-20.12-20.47-37.25-52.77-45zm-179.35-166.77-21.34-16.79c7.38-1.16 14.94-1.77 22.62-1.77 6.92 0 13.76.48 20.5 1.42zm-8.61 8.49-18.61 21.86-22.18-39.77c4.18-1.56 8.45-2.93 12.8-4.11zm45.91-22.56c4.25 1.08 8.44 2.36 12.57 3.82l-22.64 40.6-18.61-21.86zm80.65-79.26-3.2-2.33c-1.05-.77-2.3-1.15-3.54-1.15s-2.48.38-3.54 1.15l-3.2 2.33v-22.99l6.73-4.92 6.73 4.92v22.99zm-117.95-115.06 87.73 23.19-87.73 23.19-87.73-23.19zm-1.53 58.37c.5.13 1.02.2 1.53.2s1.03-.07 1.53-.2l68.89-18.21v47.99c-3.19.65-6.46 1.32-9.86 2.03-19.33 4-41.22 8.54-60.57 9.85-19.35-1.32-41.24-5.85-60.57-9.85-3.4-.7-6.67-1.38-9.86-2.03v-47.98zm-68.9 49.98v-7.95c2.41.49 4.88 1.01 7.42 1.53 19.84 4.11 42.33 8.77 62.61 10.1.13.01.26.01.39.01s.26 0 .39-.01c20.28-1.34 42.77-6 62.61-10.1 2.54-.53 5.01-1.04 7.42-1.53v7.95c0 38.31-31.17 69.48-69.48 69.48h-1.89c-38.3.01-69.47-31.16-69.47-69.48zm-71.23 201.87c8.14-47.64 39.33-86.81 81.14-106.55l27.03 48.46c.96 1.72 2.7 2.86 4.65 3.05.2.02.39.03.59.03 1.75 0 3.42-.76 4.57-2.11l23.69-27.82 23.69 27.82c1.15 1.35 2.82 2.11 4.57 2.11.2 0 .39-.01.59-.03 1.96-.19 3.69-1.33 4.65-3.05l27.59-49.46c7.62 3.46 14.96 7.6 21.96 12.4-.87.8-1.73 1.62-2.57 2.46-16.34 16.42-25.3 38.22-25.25 61.38.03 10.94 2.64 21.32 6.85 31.31zm208.89-31.34c-.05-19.96 7.67-38.74 21.75-52.88s32.82-21.96 52.77-22.01h.19c41.1 0 74.6 33.39 74.71 74.52.06 25.88-17.89 50.06-35.25 73.45-5.44 7.32-11.06 14.9-15.94 22.31l-1.1 1.67c-.01.02-.03.04-.04.06l-22.05 33.51-22.22-33.39c-.02-.02-.03-.05-.05-.07l-1.1-1.66c-4.92-7.39-10.58-14.94-16.05-22.23-17.48-23.31-35.55-47.41-35.62-73.28zm75.16 178.91c-.14 0-.27 0-.41 0-21.29 0-41.22-4.22-56.14-11.9-13.56-6.98-21.35-16.21-21.38-25.32-.04-14.66 19.42-28.58 47.77-34.55l25.07 37.68c1.11 1.67 2.99 2.68 5 2.68h.01c2.01 0 3.89-1.02 5-2.7l24.88-37.8c28.38 5.83 47.9 19.65 47.94 34.31.04 20.27-35.56 37.49-77.74 37.6zm-.33-131.32c12.76-.03 24.75-5.03 33.75-14.08s13.94-21.06 13.91-33.82c-.07-26.3-21.49-47.66-47.78-47.66-.04 0-.08 0-.12 0-12.76.03-24.75 5.03-33.75 14.08s-13.94 21.06-13.91 33.82c.07 26.3 21.49 47.66 47.78 47.66zm-35.9-47.69c-.02-9.56 3.67-18.55 10.42-25.33 6.74-6.77 15.72-10.52 25.27-10.54h.09c19.69 0 35.73 15.99 35.78 35.69.02 9.56-3.67 18.55-10.42 25.33-6.74 6.77-15.72 10.52-25.27 10.54-.03 0-.06 0-.09 0-19.69 0-35.73-15.99-35.78-35.69z"></path></svg>